<?xml version="1.0" encoding="UTF-8" standalone="no"?>
<!DOCTYPE svg PUBLIC "-//W3C//DTD SVG 1.1//EN" "http://www.w3.org/Graphics/SVG/1.1/DTD/svg11.dtd">
<svg width="100%" height="100%" viewBox="0 0 4000 3000" version="1.1" xmlns="http://www.w3.org/2000/svg" xmlns:xlink="http://www.w3.org/1999/xlink" xml:space="preserve" xmlns:serif="http://www.serif.com/" style="fill-rule:evenodd;clip-rule:evenodd;stroke-linecap:round;stroke-linejoin:round;stroke-miterlimit:1.5;">
    <rect id="Web-20" serif:id="Web 20" x="0" y="0" width="4000" height="3000" style="fill:none;"/>
    <g id="Web-201" serif:id="Web 20">
        <rect x="0" y="0" width="4000" height="3000" style="fill:white;"/>
        <g id="Back">
            <path d="M864.915,2522.39c-312.557,-337.409 -94.1,-699.037 31.531,-824.668c224.737,-224.737 134.886,-398.453 76.59,-575.072c-160.947,-487.621 487.004,-866.639 840.431,-579.549c251.104,203.972 487.669,134.253 657.017,0c380.135,-301.357 925.327,272.924 722.719,650.938c-92.847,173.227 -183.925,339.053 -0,503.683c438.347,392.363 -0,824.668 -0,824.668l-2328.29,0Z" style="fill:url(#_Linear1);"/>
            <path d="M3388.02,2537.95c-0,-8.587 -6.972,-15.559 -15.559,-15.559l-2744.93,0c-8.587,0 -15.559,6.972 -15.559,15.559l0,2.706c0,8.587 6.972,15.559 15.559,15.559l2744.93,-0c8.587,-0 15.559,-6.972 15.559,-15.559l-0,-2.706Z" style="fill:rgb(18,12,105);"/>
        </g>
        <g id="Front">
            <g>
                <path d="M3037.86,763.722c-0,-24.074 -19.545,-43.619 -43.619,-43.619l-1003.24,-0c-24.075,-0 -43.62,19.545 -43.62,43.619l0,1591.96c0,24.074 19.545,43.62 43.62,43.62l1003.24,-0c24.074,-0 43.619,-19.546 43.619,-43.62l-0,-1591.96Z" style="fill:url(#_Linear2);"/>
                <path d="M1947.37,814.336l0,1541.35c0,24.074 19.545,43.62 43.62,43.62l953.77,-0l0,-1541.35c0,-24.074 -19.545,-43.619 -43.619,-43.619l-953.771,-0Z" style="fill:url(#_Linear3);"/>
            </g>
            <g>
                <path d="M2912.49,887.924c0,-24.074 -19.545,-43.619 -43.619,-43.619l-1003.24,-0c-24.074,-0 -43.619,19.545 -43.619,43.619l-0,1591.96c-0,24.075 19.545,43.62 43.619,43.62l1003.24,-0c24.074,-0 43.619,-19.545 43.619,-43.62l0,-1591.96Z" style="fill:rgb(242,245,253);"/>
                <path d="M2798.26,2355.32c-0,-5.021 -4.076,-9.097 -9.097,-9.097l-843.824,0c-5.02,0 -9.097,4.076 -9.097,9.097l0,27.291c0,5.021 4.077,9.097 9.097,9.097l843.824,-0c5.021,-0 9.097,-4.076 9.097,-9.097l-0,-27.291Zm-0,-124.557c-0,-5.02 -4.076,-9.096 -9.097,-9.096l-843.824,-0c-5.02,-0 -9.097,4.076 -9.097,9.096l0,27.291c0,5.021 4.077,9.097 9.097,9.097l843.824,0c5.021,0 9.097,-4.076 9.097,-9.097l-0,-27.291Zm-0,-124.556c-0,-5.021 -4.076,-9.097 -9.097,-9.097l-843.824,-0c-5.02,-0 -9.097,4.076 -9.097,9.097l0,27.291c0,5.02 4.077,9.097 9.097,9.097l843.824,-0c5.021,-0 9.097,-4.077 9.097,-9.097l-0,-27.291Zm-0,-124.557c-0,-5.02 -4.076,-9.097 -9.097,-9.097l-843.824,0c-5.02,0 -9.097,4.077 -9.097,9.097l0,27.291c0,5.021 4.077,9.097 9.097,9.097l843.824,0c5.021,0 9.097,-4.076 9.097,-9.097l-0,-27.291Zm-0,-124.556c-0,-5.021 -4.076,-9.097 -9.097,-9.097l-843.824,-0c-5.02,-0 -9.097,4.076 -9.097,9.097l0,27.291c0,5.02 4.077,9.097 9.097,9.097l843.824,-0c5.021,-0 9.097,-4.077 9.097,-9.097l-0,-27.291Zm-0,-124.557c-0,-5.021 -4.076,-9.097 -9.097,-9.097l-843.824,0c-5.02,0 -9.097,4.076 -9.097,9.097l0,27.291c0,5.021 4.077,9.097 9.097,9.097l843.824,-0c5.021,-0 9.097,-4.076 9.097,-9.097l-0,-27.291Zm-0,-124.556c-0,-5.021 -4.076,-9.097 -9.097,-9.097l-843.824,-0c-5.02,-0 -9.097,4.076 -9.097,9.097l0,27.29c0,5.021 4.077,9.097 9.097,9.097l843.824,0c5.021,0 9.097,-4.076 9.097,-9.097l-0,-27.29Zm-0,-124.557c-0,-5.021 -4.076,-9.097 -9.097,-9.097l-843.824,0c-5.02,0 -9.097,4.076 -9.097,9.097l0,27.291c0,5.021 4.077,9.097 9.097,9.097l843.824,-0c5.021,-0 9.097,-4.076 9.097,-9.097l-0,-27.291Zm-0,-124.557c-0,-5.02 -4.076,-9.097 -9.097,-9.097l-843.824,0c-5.02,0 -9.097,4.077 -9.097,9.097l0,27.291c0,5.021 4.077,9.097 9.097,9.097l843.824,0c5.021,0 9.097,-4.076 9.097,-9.097l-0,-27.291Zm-0,-124.556c-0,-5.021 -4.076,-9.097 -9.097,-9.097l-843.824,-0c-5.02,-0 -9.097,4.076 -9.097,9.097l0,27.291c0,5.02 4.077,9.097 9.097,9.097l843.824,-0c5.021,-0 9.097,-4.077 9.097,-9.097l-0,-27.291Zm-0,-124.557c-0,-5.021 -4.076,-9.097 -9.097,-9.097l-843.824,0c-5.02,0 -9.097,4.076 -9.097,9.097l0,27.291c0,5.021 4.077,9.097 9.097,9.097l843.824,0c5.021,0 9.097,-4.076 9.097,-9.097l-0,-27.291Zm-0,-124.556c-0,-5.021 -4.076,-9.097 -9.097,-9.097l-843.824,-0c-5.02,-0 -9.097,4.076 -9.097,9.097l0,27.29c0,5.021 4.077,9.097 9.097,9.097l843.824,0c5.021,0 9.097,-4.076 9.097,-9.097l-0,-27.29Z" style="fill:rgb(195,214,242);"/>
            </g>
            <g>
                <path d="M1306.05,1391.97l-8.555,218.377c76.993,27.903 153.986,29.129 230.979,0l-8.555,-218.377c-71.29,40.418 -142.58,44.315 -213.869,0Z" style="fill:rgb(255,196,205);"/>
                <clipPath id="_clip4">
                    <path d="M1306.05,1391.97l-8.555,218.377c76.993,27.903 153.986,29.129 230.979,0l-8.555,-218.377c-71.29,40.418 -142.58,44.315 -213.869,0Z"/>
                </clipPath>
                <g clip-path="url(#_clip4)">
                    <path d="M1285.88,1473.76c-0,0 103.425,129.977 265.273,0l0,-111.029l-265.273,0l-0,111.029Z" style="fill:rgb(216,115,138);"/>
                </g>
                <g>
                    <path d="M1194.38,1328.18c-0,-0 27.213,64 65.385,67.409l-12.199,-68.445l-53.186,1.036Zm449.738,-0c0,-0 -27.213,64 -65.385,67.409l12.199,-68.445l53.186,1.036Z" style="fill:rgb(110,53,16);"/>
                    <path d="M1253.74,1278.56c0,0 -23.032,-47.566 -59.541,-20.434c-35.211,26.168 -0,110.983 59.541,74.891l0,-54.457Z" style="fill:rgb(215,111,135);"/>
                    <path d="M1587.49,1278.56c0,0 23.033,-47.566 59.542,-20.434c35.211,26.168 -0,110.983 -59.542,74.891l0,-54.457Z" style="fill:rgb(215,111,135);"/>
                    <path d="M1252.95,1321.49c1.8,-17.331 -13.06,-39 -45.312,-33.933c-1.989,0.312 -3.35,2.181 -3.037,4.17c0.312,1.989 2.181,3.35 4.17,3.037c25.718,-4.04 38.357,12.152 36.922,25.972c-0.207,2.003 1.25,3.797 3.252,4.005c2.003,0.208 3.798,-1.249 4.005,-3.251Z" style="fill:rgb(172,53,89);"/>
                    <path d="M1595.97,1320.73c-1.435,-13.82 11.204,-30.012 36.923,-25.972c1.989,0.313 3.857,-1.048 4.17,-3.037c0.312,-1.989 -1.049,-3.858 -3.038,-4.17c-32.252,-5.067 -47.112,16.602 -45.312,33.933c0.208,2.002 2.002,3.459 4.005,3.251c2.003,-0.208 3.46,-2.002 3.252,-4.005Z" style="fill:rgb(172,53,89);"/>
                    <path d="M1266.33,1148.36c0,0 -49.375,169.917 -4.764,250.645c29.633,53.624 57.941,97.46 158.11,97.46c81.095,0 129.518,-47.976 160.402,-97.46c44.2,-70.819 -4.764,-250.645 -4.764,-250.645l-308.984,0Z" style="fill:rgb(255,196,205);"/>
                    <clipPath id="_clip5">
                        <path d="M1266.33,1148.36c0,0 -49.375,169.917 -4.764,250.645c29.633,53.624 57.941,97.46 158.11,97.46c81.095,0 129.518,-47.976 160.402,-97.46c44.2,-70.819 -4.764,-250.645 -4.764,-250.645l-308.984,0Z"/>
                    </clipPath>
                    <g clip-path="url(#_clip5)">
                        <path d="M1279.2,1437.77c0,-0 -30.247,-92.293 -22.422,-145.092c-0,-0 43.885,-56.582 38.591,-91.622c0,0 65.648,5.002 92.467,-15.664c31.007,-23.892 60.715,-16.047 82.058,5.296c21.343,21.343 52.586,17.792 72.313,18.095c-0,-0 24.478,66.471 45.286,93.553c0,0 0.932,79.812 -26.555,135.434l122.994,-46.424l0,-326.029l-453.912,-0l-13.475,310.951l62.655,61.502Z" style="fill:rgb(235,159,177);"/>
                    </g>
                    <path d="M1313.68,1275.59c0,-0 23.805,-31.937 68.689,-17.224c2.46,0.806 5.112,-0.536 5.918,-2.996c0.806,-2.46 -0.536,-5.111 -2.996,-5.918c-51.845,-16.995 -79.167,20.579 -79.167,20.579c-1.534,2.086 -1.087,5.024 0.999,6.558c2.085,1.534 5.023,1.086 6.557,-0.999Z" style="fill:rgb(225,146,0);"/>
                    <path d="M1535.33,1270.03c-0,0 -27.323,-37.574 -79.168,-20.579c-2.46,0.807 -3.802,3.458 -2.996,5.918c0.807,2.46 3.458,3.802 5.918,2.996c44.884,-14.713 68.689,17.224 68.689,17.224c1.534,2.085 4.472,2.533 6.558,0.999c2.085,-1.534 2.533,-4.472 0.999,-6.558Z" style="fill:rgb(225,146,0);"/>
                    <path d="M1418.24,1311.75c0,-0 13.386,31.215 18.933,53.043c1.354,5.33 2.247,10.066 2.276,13.561c0.011,1.409 0.068,2.531 -0.43,3.153c-6.106,7.624 -16.784,5.614 -16.784,5.614c-1.982,-0.354 -3.878,0.967 -4.233,2.949c-0.354,1.982 0.967,3.879 2.949,4.234c0,-0 15.086,2.598 23.763,-8.236c1.015,-1.267 1.744,-3.176 1.957,-5.69c0.346,-4.081 -0.622,-10.278 -2.427,-17.382c-5.658,-22.268 -19.298,-54.12 -19.298,-54.12c-0.793,-1.851 -2.939,-2.709 -4.79,-1.916c-1.85,0.793 -2.709,2.939 -1.916,4.79Z" style="fill:rgb(227,121,146);"/>
                    <path d="M1412.83,1448.37c0,-0 16.666,-16.307 38.238,-2.574c1.941,1.235 4.52,0.663 5.755,-1.278c1.236,-1.941 0.664,-4.521 -1.277,-5.756c-27.424,-17.459 -48.582,3.683 -48.582,3.683c-1.635,1.618 -1.648,4.26 -0.03,5.896c1.619,1.635 4.261,1.648 5.896,0.029Z" style="fill:rgb(241,70,70);"/>
                    <ellipse cx="1351.57" cy="1300.32" rx="9.599" ry="16.781" style="fill:rgb(8,16,104);"/>
                    <ellipse cx="1494.59" cy="1300.32" rx="9.599" ry="16.781" style="fill:rgb(8,16,104);"/>
                    <path d="M1598.5,1295.79c-0,0 -44.933,-62.093 -44.933,-101.2c-0,-0 -54.907,10.024 -79.885,-14.053c-25.09,-24.185 -61.971,-21.509 -79.423,-12.905c-17.452,8.603 -61.901,34.473 -111.959,19.612c-0,0 -6.654,65.426 -38.584,95.289c0,0 0.61,-14.98 0.926,-16.531c-4.586,-5.352 -15.843,-16.616 -28.501,-16.242c-18.466,0.545 -31.913,17.093 -34.159,27.256c0,-0 -40.479,-72.404 -10.866,-109.384c23.263,-29.05 -17.722,-101.706 45.839,-101.706c0,0 31.271,-55.657 88.1,-70.933c56.828,-15.276 90.543,15.276 126.552,15.276c49.755,0 118.35,-36.663 145.367,-15.276c27.017,21.387 21.526,34.267 21.526,56.241c-0,-0 53.869,14.839 53.869,48.86c-0,34.022 -14.759,90.529 -0,108.686c24.314,29.913 8.618,44.992 4.864,61.773c-16.045,-25.04 -39.368,-25.54 -58.733,-7.008c-1.355,4.408 -1.592,22.858 -0,32.245" style="fill:rgb(123,66,23);"/>
                    <path d="M1166.42,1239.52c18.513,-8.703 49.738,-17.341 83.245,-0.436c0,0 18.685,-43.117 19.164,-72.341c-0,-0 68.029,9.102 103.481,-10.061c35.452,-19.163 81.444,-17.726 100.607,0c19.163,17.726 56.915,20.888 92.367,16.576c-0,0 11.019,60.736 30.182,71.138c0,0 35.562,-25.261 70.065,-1.551c-0.964,10.4 -6.308,18.816 -8.297,27.71c-16.045,-25.04 -39.368,-25.54 -58.733,-7.008c-1.355,4.408 -1.592,22.858 -0,32.245c-0,0 -44.933,-62.093 -44.933,-101.2c-0,-0 -54.907,10.024 -79.885,-14.053c-25.09,-24.185 -61.971,-21.509 -79.423,-12.905c-17.452,8.603 -61.901,34.473 -111.959,19.612c-0,0 -6.654,65.426 -38.584,95.289c0,0 0.61,-14.98 0.926,-16.531c-4.586,-5.352 -15.843,-16.616 -28.501,-16.242c-18.466,0.545 -31.913,17.093 -34.159,27.256c0,-0 -9.144,-16.357 -15.563,-37.498Z" style="fill:rgb(110,53,16);"/>
                </g>
                <path d="M1059.78,2278.42l-0,245.087l641.237,-0l-0,-228.038l-641.237,-17.049Z" style="fill:rgb(196,207,242);"/>
                <path d="M1078.23,2523.51l-18.451,-0l-0,-245.087l641.237,17.049l-0,228.038l-26.987,-0c-0,-0 5.395,-133.566 -8.345,-146.983c-8.042,-7.852 -162.279,21.675 -292.979,3.485c0,0 -65.565,52.738 -97.903,57.481c-32.338,4.743 -70.713,-9.917 -86.235,-28.457c0,-0 -43.548,37.512 -74.162,40.961c-30.613,3.449 -36.175,-5.179 -36.175,-5.179l-0,78.692Z" style="fill:rgb(166,182,235);"/>
                <path d="M1298.19,1537.51c0,-0 50.863,87.49 111.711,87.49c54.785,0 118.568,-87.49 118.568,-87.49c-0,-0 189.532,17.4 252.547,72.837c63.015,55.437 142.433,363.635 142.433,424.548c0,103.832 -117.982,132.933 -213.459,112.644c-0,0 15.857,153.925 -1.269,170.799c-68.691,67.678 -640.696,13.883 -650.138,-5.002c-17.902,-35.804 -82.971,-582.417 -13.853,-698.296c19.434,-32.582 202.927,-77.53 253.46,-77.53Z" style="fill:url(#_Linear6);"/>
                <path d="M1160.55,2332.31c-24.675,-32.861 -126.906,-178.595 -114.282,-321.764c3.531,-40.038 174.878,-144.298 174.878,-144.298l-48.572,131.687l136.676,155.381c26.667,-22.536 108.544,-76.041 132.925,-94.868c-16.958,-5.857 -40.323,-17.741 -50.636,-39.467c-23.779,-50.094 18.873,-170.158 37.291,-179.171c32.081,-15.7 68.483,23.479 68.483,23.479c-11.215,-13.523 -2.588,-41.899 24.671,-42.945c20.08,-0.77 37.647,11.057 51.42,29.893l13.109,-43.786l227.797,84.273c-0,-0 -104.613,255.337 -104.316,256.815c-0,0 15.857,153.925 -1.269,170.799c-9.074,8.94 -26.932,15.76 -51.125,20.823c32.644,-66.618 32.429,-143.911 15.287,-161.826c-27.656,-28.902 -125.122,-48.652 -125.122,-48.652l-164.991,117.359c0.33,0.785 1.17,2.96 1.454,3.768c9.053,25.733 -9.008,42.72 -25.708,37.264c-0,-0 50.652,31.633 49.288,52.092c-0.186,2.801 -2.397,6.503 -6.172,10.8c-87.187,-3.021 -175.767,-10.112 -241.086,-17.656Zm176.078,-132.302l11.214,15.683c-7.606,-3.291 -15.445,-5.597 -22.613,-6.989l11.399,-8.694Z" style="fill:url(#_Linear7);"/>
                <path d="M1292.68,1537.51c-0,-0 50.689,94.226 120.296,94.226c65.158,0 123.25,-94.226 123.25,-94.226" style="fill:none;stroke:white;stroke-width:20px;"/>
                <path d="M1930.14,1705.19c-120.538,-194.483 -74.923,-452.669 111.34,-593.044c197.334,-148.717 478.283,-109.247 627,88.087c148.718,197.333 109.247,478.283 -88.086,627c-185.73,139.973 -445.533,113.238 -599.434,-54.915l-844.203,657.735c-12.745,9.929 -28.942,14.328 -44.958,12.208c-16.016,-2.119 -30.512,-10.578 -40.236,-23.48c0,-0.001 -0,-0.001 -0,-0.001c-8.935,-11.855 -12.746,-26.796 -10.583,-41.483c2.164,-14.686 10.122,-27.893 22.096,-36.668l867.064,-635.439Z" style="fill:rgb(20,55,135);"/>
                <path d="M2603.55,1249.17c121.707,161.493 89.405,391.415 -72.087,513.121c-161.493,121.707 -391.415,89.405 -513.121,-72.088c-121.707,-161.492 -89.405,-391.414 72.087,-513.121c161.493,-121.706 391.415,-89.405 513.121,72.088Z" style="fill:rgb(236,247,255);"/>
                <path d="M2445.24,1301.61l-134.299,134.3l-134.299,-134.3l-33.778,33.779l134.299,134.299l-134.299,134.299l33.778,33.778l134.299,-134.299l134.299,134.299l33.778,-33.778l-134.299,-134.299l134.299,-134.299l-33.778,-33.779Z" style="fill:rgb(87,112,188);"/>
                <path d="M1592.03,1895.96c0,-0 -36.343,-66.691 -70.592,-65.377c-27.259,1.045 -20.795,36.428 -9.58,49.951c0,-0 -52.007,-44.345 -70.531,-35.552c-18.524,8.793 -58.019,116.64 -42.384,152.438c30.384,69.571 150.56,50.764 150.56,50.764l42.527,-152.224Z" style="fill:rgb(255,196,205);"/>
                <path d="M1572.33,1866.25c11.85,15.294 19.708,29.714 19.708,29.714l-42.527,152.224c-0,-0 -120.176,18.807 -150.56,-50.764c-2.813,-6.44 -3.841,-15.212 -3.528,-25.32c18.64,20.231 65.919,64.521 107.193,44.83c33.015,-15.752 61.628,-119.012 69.714,-150.684Z" style="fill:rgb(250,173,185);"/>
                <path d="M1831.89,1899.86l-238.086,-81.601l-79.583,274.069l196.724,55.465l120.945,-247.933Z" style="fill:url(#_Linear8);"/>
                <path d="M1281.39,2209.89c0,-0 75.383,9.268 86.757,41.6c9.053,25.734 -26.226,32.735 -42.926,27.28c-0,-0 60.363,32.053 58.999,52.512c-1.364,20.459 -87.126,96.85 -126.166,95.477c-75.87,-2.668 -105.465,-95.477 -105.465,-95.477l128.801,-121.392Z" style="fill:rgb(255,196,205);"/>
                <path d="M1295.81,2414.34c-14.207,7.847 -27.566,12.778 -37.748,12.42c-75.87,-2.668 -105.465,-95.477 -105.465,-95.477l128.801,-121.392c0,-0 14.501,1.783 31.739,6.512c-52.177,44.811 -114.872,94.983 -117.667,137.654c-1.903,29.04 75.846,53.355 100.34,60.283Z" style="fill:rgb(250,173,185);"/>
                <path d="M1047.5,1611.37c0,0 -162.082,252.748 -162.082,399.175c0,151.797 172.056,326.546 242.583,365.982l193.341,-190.955l-168.747,-186.177l71.608,-132.474l-176.703,-255.551Z" style="fill:url(#_Linear9);"/>
            </g>
        </g>
    </g>
    <defs>
        <linearGradient id="_Linear1" x1="0" y1="0" x2="1" y2="0" gradientUnits="userSpaceOnUse" gradientTransform="matrix(9.26738e-14,1770.04,-1793.89,1.28465e-13,1869.18,624.388)"><stop offset="0" style="stop-color:rgb(20,45,135);stop-opacity:1"/><stop offset="1" style="stop-color:rgb(18,6,100);stop-opacity:1"/></linearGradient>
        <linearGradient id="_Linear2" x1="0" y1="0" x2="1" y2="0" gradientUnits="userSpaceOnUse" gradientTransform="matrix(9.47512e-14,1547.4,-1547.4,9.47512e-14,2525.66,851.901)"><stop offset="0" style="stop-color:rgb(226,232,250);stop-opacity:1"/><stop offset="1" style="stop-color:rgb(185,211,250);stop-opacity:1"/></linearGradient>
        <linearGradient id="_Linear3" x1="0" y1="0" x2="1" y2="0" gradientUnits="userSpaceOnUse" gradientTransform="matrix(3.70152e-14,821.095,-604.504,5.02775e-14,3120.05,1228.92)"><stop offset="0" style="stop-color:rgb(208,219,246);stop-opacity:1"/><stop offset="1" style="stop-color:rgb(166,194,235);stop-opacity:1"/></linearGradient>
        <linearGradient id="_Linear6" x1="0" y1="0" x2="1" y2="0" gradientUnits="userSpaceOnUse" gradientTransform="matrix(4.09079e-14,668.077,-668.077,4.09079e-14,1384.25,1610.34)"><stop offset="0" style="stop-color:rgb(255,207,91);stop-opacity:1"/><stop offset="1" style="stop-color:rgb(255,161,37);stop-opacity:1"/></linearGradient>
        <linearGradient id="_Linear7" x1="0" y1="0" x2="1" y2="0" gradientUnits="userSpaceOnUse" gradientTransform="matrix(3.45167e-14,434.712,-563.7,2.66185e-14,1357.91,1867.7)"><stop offset="0" style="stop-color:rgb(233,159,48);stop-opacity:1"/><stop offset="1" style="stop-color:rgb(193,110,0);stop-opacity:1"/></linearGradient>
        <linearGradient id="_Linear8" x1="0" y1="0" x2="1" y2="0" gradientUnits="userSpaceOnUse" gradientTransform="matrix(4.09079e-14,668.077,-668.077,4.09079e-14,1384.25,1610.34)"><stop offset="0" style="stop-color:rgb(255,207,91);stop-opacity:1"/><stop offset="1" style="stop-color:rgb(255,161,37);stop-opacity:1"/></linearGradient>
        <linearGradient id="_Linear9" x1="0" y1="0" x2="1" y2="0" gradientUnits="userSpaceOnUse" gradientTransform="matrix(4.09079e-14,668.077,-668.077,4.09079e-14,1384.25,1610.34)"><stop offset="0" style="stop-color:rgb(255,207,91);stop-opacity:1"/><stop offset="1" style="stop-color:rgb(255,161,37);stop-opacity:1"/></linearGradient>
    </defs>
</svg>
